<mxfile host="Electron" agent="Mozilla/5.0 (X11; Linux x86_64) AppleWebKit/537.36 (KHTML, like Gecko) draw.io/25.0.1 Chrome/128.0.6613.186 Electron/32.2.6 Safari/537.36" version="25.0.1">
  <diagram name="Page-1" id="mopQFTJs92svS0yFKrd4">
    <mxGraphModel dx="2412" dy="919" grid="1" gridSize="1" guides="1" tooltips="1" connect="1" arrows="1" fold="1" page="1" pageScale="1" pageWidth="850" pageHeight="1100" math="0" shadow="0">
      <root>
        <mxCell id="0" />
        <mxCell id="1" parent="0" />
        <mxCell id="vtkwBHoZRbjaB9NJnB1g-2" value="" style="rounded=1;whiteSpace=wrap;html=1;fillColor=none;dashed=1;strokeColor=#FFD966;strokeWidth=3;" parent="1" vertex="1">
          <mxGeometry x="200" y="280" width="194" height="440" as="geometry" />
        </mxCell>
        <mxCell id="vtkwBHoZRbjaB9NJnB1g-12" value="" style="ellipse;shape=cloud;whiteSpace=wrap;html=1;strokeColor=#666666;dashed=1;fillColor=#f5f5f5;fontColor=#333333;strokeWidth=3;" parent="1" vertex="1">
          <mxGeometry x="10" y="280" width="160" height="190" as="geometry" />
        </mxCell>
        <mxCell id="vtkwBHoZRbjaB9NJnB1g-1" value="&lt;font face=&quot;JetBrains Mono NL&quot; style=&quot;font-size: 17px;&quot;&gt;frps&lt;/font&gt;" style="rounded=1;whiteSpace=wrap;html=1;fillColor=#dae8fc;strokeColor=none;" parent="1" vertex="1">
          <mxGeometry x="240" y="440" width="120" height="200" as="geometry" />
        </mxCell>
        <mxCell id="vtkwBHoZRbjaB9NJnB1g-3" value="&lt;font style=&quot;font-size: 15px;&quot;&gt;公网服务器&lt;/font&gt;" style="text;html=1;align=center;verticalAlign=middle;resizable=0;points=[];autosize=1;strokeColor=none;fillColor=none;" parent="1" vertex="1">
          <mxGeometry x="245" y="290" width="100" height="30" as="geometry" />
        </mxCell>
        <mxCell id="vtkwBHoZRbjaB9NJnB1g-4" value="" style="rounded=1;whiteSpace=wrap;html=1;fillColor=none;dashed=1;strokeWidth=3;strokeColor=#A9C4EB;" parent="1" vertex="1">
          <mxGeometry x="688" y="280" width="523" height="440" as="geometry" />
        </mxCell>
        <mxCell id="vtkwBHoZRbjaB9NJnB1g-5" value="&lt;font face=&quot;JetBrains Mono NL&quot; style=&quot;font-size: 17px;&quot;&gt;frpc&lt;/font&gt;" style="rounded=1;whiteSpace=wrap;html=1;fillColor=#dae8fc;strokeColor=none;" parent="1" vertex="1">
          <mxGeometry x="713" y="440" width="80" height="200" as="geometry" />
        </mxCell>
        <mxCell id="vtkwBHoZRbjaB9NJnB1g-6" value="&lt;font style=&quot;font-size: 15px;&quot;&gt;内网主机&lt;/font&gt;" style="text;html=1;align=center;verticalAlign=middle;resizable=0;points=[];autosize=1;strokeColor=none;fillColor=none;" parent="1" vertex="1">
          <mxGeometry x="909.5" y="291" width="80" height="30" as="geometry" />
        </mxCell>
        <mxCell id="vtkwBHoZRbjaB9NJnB1g-7" value="&lt;font face=&quot;JetBrains Mono NL&quot; style=&quot;font-size: 17px;&quot;&gt;用户&lt;/font&gt;" style="rounded=1;whiteSpace=wrap;html=1;fillColor=#b1ddf0;strokeColor=none;" parent="1" vertex="1">
          <mxGeometry x="-90" y="340" width="80" height="80" as="geometry" />
        </mxCell>
        <mxCell id="vtkwBHoZRbjaB9NJnB1g-9" value="&lt;font style=&quot;font-size: 15px;&quot;&gt;互联网&lt;/font&gt;" style="text;html=1;align=center;verticalAlign=middle;resizable=0;points=[];autosize=1;strokeColor=none;fillColor=none;" parent="1" vertex="1">
          <mxGeometry x="60" y="330" width="70" height="30" as="geometry" />
        </mxCell>
        <mxCell id="vtkwBHoZRbjaB9NJnB1g-10" value="&lt;font face=&quot;JetBrains Mono NL&quot;&gt;TCP: 6000&lt;/font&gt;" style="rounded=0;whiteSpace=wrap;html=1;fillColor=#e1d5e7;strokeColor=none;" parent="1" vertex="1">
          <mxGeometry x="260" y="420" width="80" height="40" as="geometry" />
        </mxCell>
        <mxCell id="vtkwBHoZRbjaB9NJnB1g-11" value="&lt;font face=&quot;JetBrains Mono NL&quot;&gt;公网 IP&lt;/font&gt;" style="rounded=0;whiteSpace=wrap;html=1;fillColor=#fff2cc;strokeColor=none;" parent="1" vertex="1">
          <mxGeometry x="240" y="700" width="120" height="40" as="geometry" />
        </mxCell>
        <mxCell id="vtkwBHoZRbjaB9NJnB1g-14" value="" style="ellipse;shape=cloud;whiteSpace=wrap;html=1;strokeColor=#666666;dashed=1;fillColor=#f5f5f5;fontColor=#333333;strokeWidth=3;" parent="1" vertex="1">
          <mxGeometry x="410" y="360" width="240" height="320" as="geometry" />
        </mxCell>
        <mxCell id="vtkwBHoZRbjaB9NJnB1g-15" value="&lt;font style=&quot;font-size: 15px;&quot;&gt;互联网&lt;/font&gt;" style="text;html=1;align=center;verticalAlign=middle;resizable=0;points=[];autosize=1;strokeColor=none;fillColor=none;" parent="1" vertex="1">
          <mxGeometry x="490" y="440" width="70" height="30" as="geometry" />
        </mxCell>
        <mxCell id="vtkwBHoZRbjaB9NJnB1g-18" value="" style="endArrow=classic;html=1;rounded=0;strokeColor=#33FF33;strokeWidth=3;exitX=1;exitY=0.25;exitDx=0;exitDy=0;entryX=0.75;entryY=0;entryDx=0;entryDy=0;" parent="1" source="vtkwBHoZRbjaB9NJnB1g-7" target="vtkwBHoZRbjaB9NJnB1g-10" edge="1">
          <mxGeometry width="50" height="50" relative="1" as="geometry">
            <mxPoint x="55" y="570" as="sourcePoint" />
            <mxPoint x="60.666605631510414" y="500" as="targetPoint" />
            <Array as="points">
              <mxPoint x="320" y="360" />
            </Array>
          </mxGeometry>
        </mxCell>
        <mxCell id="vtkwBHoZRbjaB9NJnB1g-19" value="&lt;font face=&quot;JetBrains Mono NL&quot; style=&quot;font-size: 17px;&quot;&gt;内网服务&lt;/font&gt;" style="rounded=1;whiteSpace=wrap;html=1;fillColor=#ffe6cc;strokeColor=none;" parent="1" vertex="1">
          <mxGeometry x="1056" y="440" width="120" height="120" as="geometry" />
        </mxCell>
        <mxCell id="vtkwBHoZRbjaB9NJnB1g-20" value="&lt;font face=&quot;JetBrains Mono NL&quot;&gt;TCP: 80&lt;/font&gt;" style="rounded=0;whiteSpace=wrap;html=1;fillColor=#e1d5e7;strokeColor=none;" parent="1" vertex="1">
          <mxGeometry x="996" y="470" width="80" height="60" as="geometry" />
        </mxCell>
        <mxCell id="vtkwBHoZRbjaB9NJnB1g-21" value="" style="endArrow=classic;html=1;rounded=0;strokeColor=#33FF33;strokeWidth=3;entryX=0;entryY=0.25;entryDx=0;entryDy=0;exitX=1;exitY=0.25;exitDx=0;exitDy=0;" parent="1" source="vtkwBHoZRbjaB9NJnB1g-1" target="vtkwBHoZRbjaB9NJnB1g-5" edge="1">
          <mxGeometry width="50" height="50" relative="1" as="geometry">
            <mxPoint x="420" y="480" as="sourcePoint" />
            <mxPoint x="890" y="380" as="targetPoint" />
            <Array as="points" />
          </mxGeometry>
        </mxCell>
        <mxCell id="vtkwBHoZRbjaB9NJnB1g-22" value="" style="endArrow=classic;html=1;rounded=0;strokeColor=#33FF33;strokeWidth=3;entryX=0;entryY=0.25;entryDx=0;entryDy=0;exitX=1.045;exitY=0.223;exitDx=0;exitDy=0;exitPerimeter=0;" parent="1" source="vtkwBHoZRbjaB9NJnB1g-5" target="vtkwBHoZRbjaB9NJnB1g-20" edge="1">
          <mxGeometry width="50" height="50" relative="1" as="geometry">
            <mxPoint x="623" y="730" as="sourcePoint" />
            <mxPoint x="893" y="730" as="targetPoint" />
            <Array as="points" />
          </mxGeometry>
        </mxCell>
        <mxCell id="vtkwBHoZRbjaB9NJnB1g-24" value="" style="endArrow=classic;html=1;rounded=0;strokeColor=#FF3333;strokeWidth=3;entryX=1.022;entryY=0.373;entryDx=0;entryDy=0;exitX=0;exitY=0.75;exitDx=0;exitDy=0;entryPerimeter=0;" parent="1" source="vtkwBHoZRbjaB9NJnB1g-20" target="vtkwBHoZRbjaB9NJnB1g-5" edge="1">
          <mxGeometry width="50" height="50" relative="1" as="geometry">
            <mxPoint x="603" y="750" as="sourcePoint" />
            <mxPoint x="873" y="750" as="targetPoint" />
            <Array as="points" />
          </mxGeometry>
        </mxCell>
        <mxCell id="vtkwBHoZRbjaB9NJnB1g-25" value="" style="endArrow=classic;html=1;rounded=0;strokeColor=#FF3333;strokeWidth=3;entryX=0.999;entryY=0.384;entryDx=0;entryDy=0;entryPerimeter=0;exitX=0.018;exitY=0.381;exitDx=0;exitDy=0;exitPerimeter=0;" parent="1" source="vtkwBHoZRbjaB9NJnB1g-5" target="vtkwBHoZRbjaB9NJnB1g-1" edge="1">
          <mxGeometry width="50" height="50" relative="1" as="geometry">
            <mxPoint x="680" y="520" as="sourcePoint" />
            <mxPoint x="420" y="530" as="targetPoint" />
            <Array as="points" />
          </mxGeometry>
        </mxCell>
        <mxCell id="vtkwBHoZRbjaB9NJnB1g-26" value="" style="endArrow=classic;html=1;rounded=0;strokeColor=#FF3333;strokeWidth=3;entryX=1;entryY=0.75;entryDx=0;entryDy=0;exitX=0.25;exitY=0;exitDx=0;exitDy=0;" parent="1" source="vtkwBHoZRbjaB9NJnB1g-10" target="vtkwBHoZRbjaB9NJnB1g-7" edge="1">
          <mxGeometry width="50" height="50" relative="1" as="geometry">
            <mxPoint x="228" y="499.41" as="sourcePoint" />
            <mxPoint x="-40" y="500.41" as="targetPoint" />
            <Array as="points">
              <mxPoint x="280" y="400" />
            </Array>
          </mxGeometry>
        </mxCell>
        <mxCell id="vtkwBHoZRbjaB9NJnB1g-27" value="" style="endArrow=classic;html=1;rounded=0;strokeColor=#FFB570;strokeWidth=3;fillColor=#ffcc99;" parent="1" edge="1">
          <mxGeometry width="50" height="50" relative="1" as="geometry">
            <mxPoint x="360" y="570" as="sourcePoint" />
            <mxPoint x="707" y="570" as="targetPoint" />
            <Array as="points" />
          </mxGeometry>
        </mxCell>
        <mxCell id="vtkwBHoZRbjaB9NJnB1g-28" value="" style="endArrow=classic;html=1;rounded=0;strokeColor=#FFB570;strokeWidth=3;fillColor=#ffcc99;exitX=0;exitY=0.75;exitDx=0;exitDy=0;" parent="1" source="vtkwBHoZRbjaB9NJnB1g-5" edge="1">
          <mxGeometry width="50" height="50" relative="1" as="geometry">
            <mxPoint x="420" y="810" as="sourcePoint" />
            <mxPoint x="360" y="590" as="targetPoint" />
            <Array as="points" />
          </mxGeometry>
        </mxCell>
        <mxCell id="YWggBy2WacHGGbkGbN6--1" value="&lt;font color=&quot;#007fff&quot; face=&quot;JetBrains Mono NL&quot; style=&quot;font-size: 18px;&quot;&gt;dataTunnel&lt;/font&gt;" style="text;html=1;align=center;verticalAlign=middle;resizable=0;points=[];autosize=1;strokeColor=none;fillColor=none;" vertex="1" parent="1">
          <mxGeometry x="31.5" y="362" width="127" height="35" as="geometry" />
        </mxCell>
        <mxCell id="YWggBy2WacHGGbkGbN6--2" value="&lt;font color=&quot;#007fff&quot; face=&quot;JetBrains Mono NL&quot; style=&quot;font-size: 18px;&quot;&gt;dataTunnel&lt;/font&gt;" style="text;html=1;align=center;verticalAlign=middle;resizable=0;points=[];autosize=1;strokeColor=none;fillColor=none;" vertex="1" parent="1">
          <mxGeometry x="472" y="484" width="127" height="35" as="geometry" />
        </mxCell>
        <mxCell id="YWggBy2WacHGGbkGbN6--3" value="&lt;font color=&quot;#007fff&quot; face=&quot;JetBrains Mono NL&quot; style=&quot;font-size: 18px;&quot;&gt;msgTunnel&lt;/font&gt;" style="text;html=1;align=center;verticalAlign=middle;resizable=0;points=[];autosize=1;strokeColor=none;fillColor=none;" vertex="1" parent="1">
          <mxGeometry x="481" y="561" width="116" height="35" as="geometry" />
        </mxCell>
        <mxCell id="YWggBy2WacHGGbkGbN6--4" value="&lt;font color=&quot;#007fff&quot; face=&quot;JetBrains Mono NL&quot; style=&quot;font-size: 18px;&quot;&gt;dataTunnel&lt;/font&gt;" style="text;html=1;align=center;verticalAlign=middle;resizable=0;points=[];autosize=1;strokeColor=none;fillColor=none;" vertex="1" parent="1">
          <mxGeometry x="841" y="484" width="127" height="35" as="geometry" />
        </mxCell>
      </root>
    </mxGraphModel>
  </diagram>
</mxfile>
